HIERARCHY
ROOT Hips
{
 OFFSET 0.000000 0.000000 0.000000
 CHANNELS 6 Xposition Yposition Zposition Yrotation Xrotation Zrotation
 JOINT Chest
 {
  OFFSET 0.000000 9.585900 0.002600
  CHANNELS 3 Yrotation Xrotation Zrotation
  JOINT Chest2
  {
   OFFSET 0.000000 9.601200 -0.005300
   CHANNELS 3 Yrotation Xrotation Zrotation
   JOINT Chest3
   {
    OFFSET 0.000000 9.561800 0.000000
    CHANNELS 3 Yrotation Xrotation Zrotation
    JOINT Chest4
    {
     OFFSET 0.000000 9.552100 0.000000
     CHANNELS 3 Yrotation Xrotation Zrotation
     JOINT Neck
     {
      OFFSET 0.000000 14.453000 0.000000
      CHANNELS 3 Yrotation Xrotation Zrotation
      JOINT Head
      {
       OFFSET 0.000000 8.936500 -0.011300
       CHANNELS 3 Yrotation Xrotation Zrotation
       End Site
       {
        OFFSET 0.000000 17.073600 -0.006000
       }
      }
     }
     JOINT RightCollar
     {
      OFFSET -2.921100 9.558500 0.000000
      CHANNELS 3 Yrotation Xrotation Zrotation
      JOINT RightShoulder
      {
       OFFSET -13.519700 0.000000 0.000000
       CHANNELS 3 Yrotation Xrotation Zrotation
       JOINT RightElbow
       {
        OFFSET 0.000000 -29.696600 0.000000
        CHANNELS 3 Yrotation Xrotation Zrotation
        JOINT RightWrist
        {
         OFFSET 0.000000 -24.004700 0.000000
         CHANNELS 3 Yrotation Xrotation Zrotation
         End Site
         {
          OFFSET 0.000000 -17.728500 0.000000
         }
        }
       }
      }
     }
     JOINT LeftCollar
     {
      OFFSET 2.921100 9.558500 0.000000
      CHANNELS 3 Yrotation Xrotation Zrotation
      JOINT LeftShoulder
      {
       OFFSET 13.519700 0.000000 0.000000
       CHANNELS 3 Yrotation Xrotation Zrotation
       JOINT LeftElbow
       {
        OFFSET 0.000000 -29.696600 0.000000
        CHANNELS 3 Yrotation Xrotation Zrotation
        JOINT LeftWrist
        {
         OFFSET 0.000000 -24.004700 0.000000
         CHANNELS 3 Yrotation Xrotation Zrotation
         End Site
         {
          OFFSET 0.000000 -17.728500 0.000000
         }
        }
       }
      }
     }
    }
   }
  }
 }
 JOINT RightHip
 {
  OFFSET -7.771700 -0.012900 -0.001300
  CHANNELS 3 Yrotation Xrotation Zrotation
  JOINT RightKnee
  {
   OFFSET 0.000000 -40.869800 0.001200
   CHANNELS 3 Yrotation Xrotation Zrotation
   JOINT RightAnkle
   {
    OFFSET 0.000000 -39.717900 0.002100
    CHANNELS 3 Yrotation Xrotation Zrotation
    JOINT RightToe
    {
     OFFSET 0.000000 -4.965400 11.033500
     CHANNELS 3 Yrotation Xrotation Zrotation
     End Site
     {
      OFFSET 0.000000 -1.423100 5.872300
     }
    }
   }
  }
 }
 JOINT LeftHip
 {
  OFFSET 7.771700 -0.012900 -0.001300
  CHANNELS 3 Yrotation Xrotation Zrotation
  JOINT LeftKnee
  {
   OFFSET 0.000000 -40.869800 0.001200
   CHANNELS 3 Yrotation Xrotation Zrotation
   JOINT LeftAnkle
   {
    OFFSET 0.000000 -39.717900 0.002100
    CHANNELS 3 Yrotation Xrotation Zrotation
    JOINT LeftToe
    {
     OFFSET 0.000000 -4.965400 11.033500
     CHANNELS 3 Yrotation Xrotation Zrotation
     End Site
     {
      OFFSET 0.000000 -1.423100 5.872300
     }
    }
   }
  }
 }
}
MOTION
Frames: 11
Frame Time: 0.008333
0.000000 85.388000 0.000000 0.000000 -5.767877 0.000000 0.000000 11.653817 0.000000 0.000000 -5.885947 0.000000 0.000000 -0.000000 0.000000 0.000000 -0.000000 0.000000 0.000000 12.528835 0.000000 0.000000 0.711642 0.000000 0.000000 -0.000000 0.000000 0.000000 0.000000 -90.000000 0.000000 -2.309062 0.000000 0.000000 2.309062 0.000000 0.000000 -0.000000 0.000000 0.000000 -0.000000 90.000000 0.000000 -2.309062 0.000000 0.000000 2.309062 0.000000 0.000000 8.520406 0.000000 0.000000 1.905762 0.000000 -0.000000 -4.658285 0.000000 0.000000 -0.000000 0.000000 0.000000 8.520406 0.000000 0.000000 1.905762 0.000000 -0.000000 -4.658285 0.000000 0.000000 -0.000000 0.000000
-55.565771 57.525548 14.039658 162.442254 -7.086386 0.942884 2.048713 6.299208 1.537163 0.061698 0.254989 0.040398 0.151987 0.453514 0.022505 1.756664 6.103408 0.780161 1.837272 16.407549 -1.188753 3.781484 -5.258322 -2.775456 2.776632 9.493514 1.188320 -7.791562 -11.225953 -6.386553 -83.289972 -84.719585 98.889737 -3.818983 3.670019 -25.632509 -5.761996 9.953184 -2.728291 19.106966 -7.121604 -1.282732 75.446017 -76.614052 -92.875559 -0.392285 8.635666 16.275511 -16.009608 -65.126262 7.604811 -38.090986 72.174142 -39.242316 -3.657095 -7.858544 -1.394544 -0.260518 0.782176 -0.088118 3.006052 -67.568304 12.373450 41.114461 64.837667 33.864360 -17.823169 -10.264755 4.171019 -0.188455 -1.114413 -0.079369
-55.569958 57.524260 14.033397 162.469991 -7.082210 0.930729 2.033515 6.295827 1.534387 0.073133 0.256339 0.027538 0.148320 0.451037 0.027585 1.767212 6.098218 0.768414 1.807691 16.314940 -1.167143 3.721676 -5.426907 -2.729040 2.804971 9.444546 1.148352 -7.840969 -11.170198 -6.343643 -83.302470 -84.731891 98.896666 -3.828827 3.677006 -25.637720 -5.752194 9.903134 -2.719119 19.179133 -7.075139 -1.331518 75.362269 -76.641001 -92.794725 -0.383082 8.632705 16.303934 -16.029652 -65.131163 7.605549 -38.118203 72.184144 -39.274207 -3.657705 -7.863254 -1.382579 -0.268028 0.778275 -0.089733 2.975865 -67.575826 12.380639 41.131811 64.827990 33.875477 -17.822857 -10.214622 4.175042 -0.189867 -1.141612 -0.076258
-55.574938 57.522624 14.027196 162.495562 -7.071871 0.916546 2.035592 6.286239 1.520726 0.073324 0.255576 0.027233 0.129065 0.449567 0.048236 1.811990 6.082518 0.713270 1.759732 16.232154 -1.113829 3.662200 -5.593730 -2.690979 2.796228 9.419089 1.161121 -7.872971 -11.132373 -6.312602 -83.316161 -84.764909 98.908867 -3.838600 3.686731 -25.646417 -5.758372 9.864375 -2.678401 19.211694 -7.041245 -1.352726 75.307666 -76.645511 -92.713886 -0.373476 8.630222 16.333886 -16.074624 -65.139606 7.630809 -38.127092 72.193132 -39.295546 -3.658350 -7.866848 -1.365997 -0.275010 0.775688 -0.092445 2.945933 -67.589797 12.392432 41.134889 64.821177 33.872773 -17.824868 -10.156682 4.177643 -0.197083 -1.173987 -0.071459
-55.581233 57.520735 14.021031 162.515391 -7.056338 0.905970 2.039797 6.269057 1.505557 0.092535 0.254010 0.004852 0.110341 0.449668 0.070217 1.801664 6.079396 0.725146 1.732380 16.139836 -1.117397 3.605026 -5.761144 -2.661999 2.810875 9.393125 1.130955 -7.900903 -11.099889 -6.275343 -83.378516 -84.802548 98.969221 -3.825514 3.700461 -25.650246 -5.730034 9.810493 -2.689557 19.226387 -7.013123 -1.357612 75.290013 -76.637119 -92.665928 -0.364184 8.626848 16.364212 -16.086934 -65.158926 7.632301 -38.171872 72.197075 -39.341622 -3.654873 -7.860900 -1.357451 -0.276174 0.765532 -0.092859 2.935153 -67.609108 12.391891 41.145342 64.811646 33.880961 -17.851495 -10.093700 4.174822 -0.148796 -1.185262 -0.057062
-55.589403 57.518761 14.014368 162.561322 -7.039841 0.901430 2.013579 6.250962 1.483868 0.093445 0.253805 0.005335 0.109014 0.447987 0.069169 1.792653 6.076419 0.734624 1.705950 16.049270 -1.124533 3.547836 -5.929167 -2.640232 2.824081 9.371554 1.100358 -7.922318 -11.086425 -6.262742 -83.269097 -84.792847 98.855532 -3.825455 3.705257 -25.651970 -5.716669 9.787025 -2.688643 19.255555 -7.017505 -1.382588 75.263400 -76.626409 -92.612938 -0.357716 8.621264 16.387879 -16.104812 -65.181561 7.609197 -38.199434 72.214112 -39.370384 -3.664360 -7.868866 -1.349044 -0.282068 0.762110 -0.092765 2.926625 -67.627470 12.364152 41.173910 64.793832 33.887023 -17.874005 -10.032700 4.200032 -0.185302 -1.145866 -0.070687
-55.595574 57.517029 14.006104 162.589750 -7.036222 0.889885 2.006150 6.245489 1.472177 0.094308 0.254721 0.006651 0.128679 0.446042 0.046862 1.771806 6.071498 0.750277 1.677787 15.961951 -1.117390 3.489791 -6.094422 -2.625139 2.828210 9.353293 1.086040 -7.939729 -11.085137 -6.276431 -83.240288 -84.790302 98.820653 -3.861051 3.716717 -25.652253 -5.708120 9.765349 -2.671509 19.282491 -7.029796 -1.402703 75.227606 -76.615262 -92.555953 -0.354655 8.612335 16.403358 -16.117383 -65.189007 7.601555 -38.230106 72.229495 -39.402866 -3.671509 -7.872671 -1.350411 -0.287320 0.755250 -0.083591 2.913235 -67.634136 12.359831 41.172144 64.790043 33.881696 -17.897929 -9.983217 4.206451 -0.183688 -1.121571 -0.072428
-55.602116 57.515365 13.997910 162.607632 -7.032486 0.882176 2.011462 6.241829 1.460426 0.092065 0.254774 0.006000 0.128657 0.445400 0.046700 1.773611 6.066053 0.746813 1.649926 15.898730 -1.107836 3.428855 -6.271193 -2.623638 2.823820 9.337186 1.069879 -7.958210 -11.070664 -6.253353 -83.296095 -84.805012 98.872645 -3.805042 3.711776 -25.664419 -5.658036 9.675493 -2.693733 19.260048 -6.995250 -1.353144 75.207992 -76.606318 -92.525198 -0.354801 8.601112 16.412130 -16.094509 -65.197252 7.567441 -38.257816 72.241295 -39.423239 -3.674767 -7.872739 -1.343113 -0.285582 0.748858 -0.083664 2.907590 -67.641999 12.355554 41.187756 64.786924 33.893397 -17.920498 -9.925080 4.204210 -0.159032 -1.121555 -0.063807
-55.606430 57.513870 13.989894 162.620977 -7.033256 0.863167 2.018923 6.242364 1.459529 0.093108 0.255166 0.006172 0.128573 0.444842 0.046525 1.773365 6.061420 0.746669 1.619759 15.821496 -1.111729 3.376081 -6.417012 -2.619936 2.818963 9.322832 1.052930 -7.976744 -11.085606 -6.288581 -83.102553 -84.750323 98.680114 -3.783775 3.702522 -25.676334 -5.643781 9.643259 -2.689826 19.279558 -7.008763 -1.351414 75.078447 -76.607965 -92.413711 -0.346156 8.559599 16.427164 -16.123374 -65.192289 7.591084 -38.272875 72.244902 -39.450618 -3.664084 -7.870925 -1.328013 -0.302646 0.744663 -0.098879 2.859950 -67.644232 12.394007 41.216493 64.782904 33.915226 -17.912525 -9.880997 4.199863 -0.170768 -1.114177 -0.061464
-55.610885 57.513002 13.978130 162.654910 -7.057645 0.850454 2.006602 6.268228 1.450805 0.091931 0.253589 0.006813 0.119207 0.443958 0.056201 1.784368 6.058496 0.734277 1.584264 15.731667 -1.122478 3.334417 -6.529666 -2.613759 2.809249 9.309204 1.041551 -7.996812 -11.092979 -6.306312 -83.104697 -84.739182 98.681178 -3.787940 3.692912 -25.687451 -5.640166 9.623037 -2.677716 19.309869 -7.031929 -1.353938 74.967453 -76.605002 -92.324915 -0.343956 8.519289 16.426119 -16.116621 -65.167739 7.562022 -38.335656 72.253434 -39.525172 -3.649755 -7.886863 -1.300018 -0.322177 0.747192 -0.107060 2.826822 -67.625438 12.404776 41.207923 64.788586 33.911123 -17.935900 -9.822946 4.180574 -0.148197 -1.120008 -0.042739
-55.611643 57.511942 13.970150 162.673186 -7.069124 0.812927 2.011596 6.278193 1.469249 0.090827 0.254718 0.006921 0.110584 0.442208 0.065762 1.789849 6.056470 0.721286 1.568838 15.699232 -1.111918 3.290782 -6.673402 -2.635545 2.802024 9.295767 1.031289 -8.010431 -11.084071 -6.293511 -83.587991 -84.799161 99.142049 -3.834422 3.705485 -25.683348 -5.619499 9.590058 -2.673476 19.330832 -7.042821 -1.338365 75.157599 -76.594283 -92.516055 -0.353598 8.545048 16.392171 -16.116503 -65.147302 7.571905 -38.399294 72.250977 -39.570834 -3.668294 -7.890361 -1.291460 -0.314630 0.744962 -0.107065 2.775835 -67.617055 12.462826 41.190630 64.792257 33.898665 -17.959332 -9.808897 4.185942 -0.136757 -1.097420 -0.041397
